<svg xmlns="http://www.w3.org/2000/svg" viewBox="0 0 126.79 141.29"><defs><style>.cls-1{fill:#2a327f;}.cls-2{fill:#b3b2b2;}</style></defs><g id="Capa_2" data-name="Capa 2"><g id="Layer_1" data-name="Layer 1"><path class="cls-1" d="M106.9,66.17a7.12,7.12,0,0,0,3.69,3.16c3,1.08,8.51,1.12,11,1.1s3.44,1.8,1.85,2.67-12.73,5.7-20.09,2.82c-.14,0,1.77-4.41,2.85-7.5Z"/><path class="cls-1" d="M90.76,54s.31.26-1.06-.15a2.92,2.92,0,0,1-1.83-4c.29-.57.29-.55.76-.61,1.22-.15,2.13,1,2.74,1.83A5.31,5.31,0,0,1,92,54.34a33.71,33.71,0,0,1-.51,7.77s0-6.37-1.2-7.35"/><path class="cls-1" d="M90.86,90.49s2.54-1.12,2.35-2.11S92.08,87.94,91.3,87s-1.59-2.47-.51-3.75,2.46-.87,2.4-.38-.32,3.86,1,4.53,2.07-.64,2.72-1.08,1.67-.53,1.17.26a3.61,3.61,0,0,1-1.91,1.81c-1,.37-1.93.32-2.23.71A6.85,6.85,0,0,1,90.86,90.49Z"/><path class="cls-1" d="M110.67,57.65a40.29,40.29,0,0,1,1-7.31c.62-3,1.75-6.86-1.43-10.14,0,0,7.89-3.71,7.23-6.83-.33-1.51-2.47-1-2.47-1s4.77-1.78,10,4.77c3.59,4.53,1.31,9.32-3,13.24A44.51,44.51,0,0,1,110.67,57.65Z"/><path class="cls-1" d="M111.26,37.68s5-2.13,4.58-4.3c-.22-1.05-1.44-.75-1.72-.72a12.51,12.51,0,0,0-2.59.87A14.4,14.4,0,0,1,111.26,37.68Z"/><path class="cls-1" d="M99.19,50.47c-.29-.27-1.7-1.77-1.59-2.32a45.75,45.75,0,0,0,4.65-12.39c1.82-9-1.88-26.67-19.09-29.61C61.35,2.42,54,26.71,54,26.71s5-28.77,31.48-23.58c22.71,4.46,27.4,29.51,22.53,40.71S99.48,50.73,99.19,50.47Z"/><path class="cls-1" d="M61.49,54.57c2.7,6.24,10.62,11.48,14.43,16.7s4.39,11,4.74,14,2.4,4.41,4.74,5.52c2,1,5.6-.15,5.6-.15s-3.49.37-4.71-.18c-1.51-.68-4.7-2.15-5-5.72s-.3-10.46-3.87-15c-1.67-2.13-5.61-4.34-9.57-7.87A33.81,33.81,0,0,1,61.49,54.57Z"/><path class="cls-1" d="M83.15,77.1c.23.26.78,2.16,1.25,5.89.22,1.82,1.23,3,3.32,5a17.79,17.79,0,0,0,3.38,2.45,2.8,2.8,0,0,1-2.77.19c-1-.39-5.56-2.86-5-7.29A17.34,17.34,0,0,0,83.15,77.1Z"/><path class="cls-1" d="M91,90.59a3,3,0,0,0,3.08.33c1.71-.65,1.79-2.3,3.36-3.52s1.84-3.9,2.37-6.66,5.16-13.24,5.64-15,.45-1.31,2.58-2.85,2.64-5.26,2.64-5.26-1.11,3.67-3,4.71c-1.38.76-2.24.49-2.75,1.93C104,67,99.13,78.17,98.68,80.53c-.27,1.41-.17,3.83-.38,5-.29,1.49-.71,1.12-1.62,2S94.11,91.47,91,90.59Z"/><path class="cls-1" d="M77.59,40.79s-1.53-7.11.75-8.86a8,8,0,0,1,7.09,7.34s.54-8.5-7.91-9.59C72.8,29.07,77.59,40.79,77.59,40.79Z"/><path class="cls-1" d="M52.24,42.94A32.25,32.25,0,0,1,54.07,19.6c-5.7-.06-12,1.82-16.33,3.42L27,54.83H58.41L45.52,79.17C61.3,63.8,70.72,68.32,70.72,68.32S56.65,56.65,52.24,42.94Z"/><path class="cls-1" d="M64.42,45.17c-1.11-2.48-1.88-12,7.28-19.16s15.48-.24,16.58,1.38a12,12,0,0,1,.07,12.38s6.67.94,8,6.62c.13.52,3-5,4.33-11.27,1.82-8.29-2-24.67-17.33-27.6-21-4-29.05,19.23-29.6,23.55-.63,5-.37,11.31,4,17.43,4.1,5.71,15.88,7.83,21.85,4.54A14.61,14.61,0,0,0,84.67,49a16.94,16.94,0,0,1-9.28,2.79C71.62,51.62,67,50.81,64.42,45.17Z"/><path class="cls-1" d="M66.2,46.59c3.15,5,10.45,4.83,13.75,3.91,4.57-1.26,6.3-2.94,6.5-4.26.25-1.67-4.37.56-7.41.91a11.55,11.55,0,0,1-7.92-1.52c-2.79-1.83-4.21-6-3.8-9.49.15-1.31.66-4.83,1.87-6.85,0,0-7.6,9-3,17.3"/><path class="cls-2" d="M0,76.84H31.84L10,141.29l44.6-84.17H23.84L43.08,0Z"/><polygon class="cls-2" points="29.32 79.99 4.27 79.99 0.31 78.16 29.84 78.16 29.32 79.99"/></g></g></svg>