<svg xmlns="http://www.w3.org/2000/svg" viewBox="0 0 1517.36 855.23"><defs><style>.cls-1{fill:#2d2e83;}.cls-2{fill:#b2b2b2;}</style></defs><g id="Capa_2" data-name="Capa 2"><g id="Layer_1" data-name="Layer 1"><path class="cls-1" d="M1397,400.53c3.18,5.54,10,14.7,22.28,19.11,18.21,6.57,51.54,6.79,66.35,6.67s20.86,10.91,11.21,16.19c-9.47,5.19-77,34.49-121.58,17.08-.85-.33,10.71-26.69,17.26-45.4Z"/><path class="cls-1" d="M1299.28,327.1s1.85,1.59-6.45-.92-16.52-13.46-11.06-24c1.78-3.41,1.79-3.33,4.61-3.69,7.37-.92,12.9,5.84,16.59,11.06s4,11.67,4,19.35c0,10.77,1.54,15.67-3.07,47,0,0-.33-38.51-7.27-44.46"/><path class="cls-1" d="M1299.91,547.74s15.37-6.76,14.21-12.75-6.88-2.7-11.59-8.22-9.61-15-3-22.74,14.85-5.25,14.52-2.31-1.93,23.41,5.85,27.43,12.51-3.84,16.48-6.55,10.07-3.16,7.09,1.59-5.35,8.67-11.56,10.95-11.68,1.93-13.52,4.35S1305.29,547.38,1299.91,547.74Z"/><path class="cls-1" d="M1419.79,349s-.19-12.27,6.37-44.26c3.74-18.24,10.61-41.53-8.69-61.37,0,0,47.79-22.48,43.76-41.37-1.94-9.15-15-6.32-15-6.32s28.89-10.81,60.3,28.82c21.77,27.48,7.92,56.46-17.84,80.17C1457.93,333,1419.79,349,1419.79,349Z"/><path class="cls-1" d="M1423.39,228.06s30.49-12.88,27.69-26c-1.35-6.35-8.73-4.58-10.38-4.38s-6.94,1.57-15.69,5.27C1425,203,1426.26,215.92,1423.39,228.06Z"/><path class="cls-1" d="M1350.29,305.48c-1.77-1.62-10.26-10.66-9.62-14s19.27-30.8,28.14-75c11-54.78-11.36-161.46-115.54-179.26-132-22.56-176.35,124.45-176.35,124.45S1107.51-12.45,1267.51,19c137.42,27,165.82,178.6,136.38,246.41S1352.07,307.1,1350.29,305.48Z"/><path class="cls-1" d="M1122.07,330.33c16.4,37.78,64.32,69.47,87.37,101.11s26.6,66.25,28.68,84.43,14.55,26.67,28.71,33.41c12,5.71,33.88-.92,33.88-.92s-21.08,2.24-28.5-1.11c-9.15-4.13-28.45-13-30.16-34.61-1.75-22-1.82-63.3-23.38-90.74-10.11-12.87-34-26.27-57.92-47.62C1133.46,350,1122.07,330.33,1122.07,330.33Z"/><path class="cls-1" d="M1253.21,466.72c1.39,1.58,4.72,13,7.54,35.61,1.38,11.06,7.5,18.42,20.13,30.42a108.6,108.6,0,0,0,20.45,14.8s-6.4,5.26-16.79,1.18c-6-2.36-33.63-17.32-30.06-44.17C1257.47,482.17,1253.21,466.72,1253.21,466.72Z"/><path class="cls-1" d="M1300.71,548.36c9,4.94,12.93,4.19,18.66,2,10.32-3.93,10.86-13.92,20.36-21.34s11.14-23.57,14.33-40.28,31.22-80.16,34.15-90.68,2.73-7.95,15.59-17.27,16-31.81,16-31.81-6.7,22.22-17.9,28.46c-8.34,4.65-13.57,3-16.67,11.72-5.76,16.27-35.25,84-38,98.29-1.65,8.53-1,23.22-2.3,29.95-1.73,9.05-4.3,6.83-9.77,12.3S1319.57,553.67,1300.71,548.36Z"/><path class="cls-1" d="M1219.57,246.93s-9.29-43.06,4.54-53.66c0,0,37.39,2.51,42.92,44.44,0,0,3.26-51.45-47.92-58.06C1190.54,176,1219.57,246.93,1219.57,246.93Z"/><path class="cls-2" d="M749.89,465.1H942.61L810.48,855.23l270-509.47H894.2L1010.67,0Z"/><path class="cls-1" d="M1066.14,259.93c-24.41-75.89,11.06-141.3,11.06-141.3-34.5-.36-72.74,11-98.84,20.7L913.49,331.91h190l-78,147.29c95.53-93,152.54-65.68,152.54-65.68S1092.83,342.91,1066.14,259.93Z"/><path class="cls-1" d="M38.61,538.42c-.75-9.28-5.69-12-9.88-12-6,0-9.28,3.89-9.28,10.62,0,18.41,37.72,27.24,37.72,56.57,0,17.81-12,27.69-29.34,27.69C10.62,621.33.75,607.56,0,591.4l17.66-2.55c.75,10.93,5.09,16.31,11.07,16.31,6.44,0,10.78-3.44,10.78-9.87,0-21.4-37.71-27.09-37.71-58.07,0-17.21,10.47-26.93,28.73-26.93,15.11,0,24.09,10.92,25.74,26.18Z"/><path class="cls-1" d="M67.49,619.83V511.78H86v44H105.8v-44h18.55V619.83H105.8V571.94H86v47.89Z"/><path class="cls-1" d="M138.57,619.83V511.78h49.68v16.16H157.13v27.84h23.94v16.16H157.13v31.73h33.22v16.16Z"/><path class="cls-1" d="M200.37,619.83V511.78h18.56v91.89h29.18v16.16Z"/><path class="cls-1" d="M254.84,619.83V511.78H273.4v91.89h29.18v16.16Z"/><path class="cls-1" d="M339.69,511.78h27.53c19.91,0,28.74,10.18,28.74,28.58,0,9.28-3.89,19-12.87,22.6,9.42,4.19,15,11.67,15,25.59,0,17.81-7.93,31.28-29,31.28H339.69Zm18.55,44.3H365c7,0,12.42-4.79,12.42-13.77,0-10-3.89-15.26-12.12-15.26h-7Zm0,48.49H366c9.87,0,13.47-5.69,13.47-16.62s-4.19-16.61-15.27-16.61h-6Z"/><path class="cls-1" d="M410.77,538c0-15.26,9-27.68,28.43-27.68s28.44,12.42,28.44,27.68v55.67c0,15.26-9,27.69-28.44,27.69s-28.43-12.43-28.43-27.69Zm18.56,55.22c0,8.08,2.39,12,9.87,12s9.88-3.89,9.88-12V538.42c0-8.08-2.39-12-9.88-12s-9.87,3.89-9.87,12Z"/><path class="cls-1" d="M500.41,619.83H481.86V511.78h26c20.8,0,31.43,8.83,31.43,31.88,0,17.36-6.73,24.39-13,27.23L542,619.83H523.16L510,575.08a89.44,89.44,0,0,1-9.58.45Zm0-59.56H507c10,0,13.76-3.74,13.76-16.61S517,527.05,507,527.05h-6.59Z"/><path class="cls-1" d="M571.49,619.83H552.94V511.78h26c20.8,0,31.42,8.83,31.42,31.88,0,17.36-6.73,24.39-13,27.23l15.72,48.94H594.24l-13.17-44.75a89.18,89.18,0,0,1-9.58.45Zm0-59.56h6.59c10,0,13.77-3.74,13.77-16.61s-3.75-16.61-13.77-16.61h-6.59Z"/><path class="cls-1" d="M624,619.83V511.78H673.7v16.16H642.58v27.84h23.94v16.16H642.58v31.73H675.8v16.16Z"/><path class="cls-1" d="M712.31,565.06h30.38v54.77h-9l-3.44-8.08c-5.54,6.58-10,9.58-18.71,9.58-14.67,0-24.84-10.48-24.84-27.69V538c0-15.26,9-27.68,27.24-27.68,18.55,0,27.83,13.46,27.83,29.62v6.89H724.13c0-16.16-3.29-20.35-10.62-20.35-4.49,0-8.24,2.69-8.24,11.82v55.52c0,6.88,2.25,11.37,8.69,11.37,7.48,0,10.17-4.19,10.17-15V579.72H712.31Z"/><path class="cls-1" d="M757.8,538c0-15.26,9-27.68,28.44-27.68s28.43,12.42,28.43,27.68v55.67c0,15.26-9,27.69-28.43,27.69S757.8,608.9,757.8,593.64Zm18.56,55.22c0,8.08,2.39,12,9.88,12s9.87-3.89,9.87-12V538.42c0-8.08-2.39-12-9.87-12s-9.88,3.89-9.88,12Z"/><path class="cls-1" d="M862.71,538.42c-.75-9.28-5.69-12-9.88-12-6,0-9.28,3.89-9.28,10.62,0,18.41,37.71,27.24,37.71,56.57,0,17.81-12,27.69-29.33,27.69-17.21,0-27.08-13.77-27.83-29.93l17.65-2.55c.75,10.93,5.09,16.31,11.08,16.31,6.43,0,10.78-3.44,10.78-9.87,0-21.4-37.72-27.09-37.72-58.07,0-17.21,10.48-26.93,28.74-26.93,15.11,0,24.09,10.92,25.74,26.18Z"/><path class="cls-1" d="M1035.58,547.85v-8.38c0-9.13-4.19-13-9-13-7.48,0-9.87,3.89-9.87,12v54.77c0,8.08,2.39,12,9.87,12,6.74,0,9-3.89,9-10.92v-13h18.56v12.42c0,15.26-9,27.69-27.54,27.69-19.45,0-28.43-12.43-28.43-27.69V538c0-15.26,9-27.68,28.43-27.68,18.56,0,27.54,13.46,27.54,29.62v7.94Z"/><path class="cls-1" d="M1110.41,547.85v-8.38c0-9.13-4.19-13-9-13-7.49,0-9.88,3.89-9.88,12v54.77c0,8.08,2.39,12,9.88,12,6.73,0,9-3.89,9-10.92v-13H1129v12.42c0,15.26-9,27.69-27.53,27.69-19.46,0-28.44-12.43-28.44-27.69V538c0-15.26,9-27.68,28.44-27.68,18.55,0,27.53,13.46,27.53,29.62v7.94Z"/><path class="cls-1" d="M1222.19,511.78V619.83H1206v-84.4h-.3L1189,619.83h-9l-16.76-84.4h-.3v84.4h-16.16V511.78h24.39l13.17,63.15h.3l13.17-63.15Z"/><polygon class="cls-2" points="927.37 484.17 775.73 484.17 751.77 473.12 930.52 473.12 927.37 484.17"/><path class="cls-2" d="M369.78,464.48H340.56V375.54h28.87v7h-21v33.19h19.1v7.1h-19.1v34.67h21.32Z"/><path class="cls-2" d="M417.36,458.17a6.19,6.19,0,0,1-1.74,4.55,6.06,6.06,0,0,1-4.51,1.76h-22.4a6.26,6.26,0,0,1-4.57-1.76,6.11,6.11,0,0,1-1.79-4.55V435.61h7.9v21.88h19.21v-21.2l-24.55-29.66a10.31,10.31,0,0,1-2.56-6.77v-18a6.12,6.12,0,0,1,1.79-4.55,6.26,6.26,0,0,1,4.57-1.76h22.4a6.06,6.06,0,0,1,4.51,1.76,6.21,6.21,0,0,1,1.74,4.55v20.68h-7.9v-20H390.25v18.75L414.91,431a10.17,10.17,0,0,1,2.45,6.65Z"/><path class="cls-2" d="M467.55,458.17a6,6,0,0,1-1.82,4.55,6.35,6.35,0,0,1-4.6,1.76h-22.9a6,6,0,0,1-6.31-6.31V381.85a6,6,0,0,1,6.31-6.31h22.9a6.35,6.35,0,0,1,4.6,1.76,6,6,0,0,1,1.82,4.55v20.68H459.6v-20H439.82v75H459.6V435.61h7.95Z"/><path class="cls-2" d="M518.83,458.17a6.11,6.11,0,0,1-1.79,4.55,6.27,6.27,0,0,1-4.58,1.76H488.25a6,6,0,0,1-6.3-6.31V375.54h7.9v81.95h21.08V375.54h7.9Z"/><path class="cls-2" d="M570.28,448.4A15.44,15.44,0,0,1,565.64,460,16,16,0,0,1,554,464.48H533.62V375.54H554a16,16,0,0,1,11.7,4.52,15.49,15.49,0,0,1,4.61,11.56Zm-7.9-.8V392.3a9.45,9.45,0,0,0-2.76-7.07,9.75,9.75,0,0,0-7.13-2.7h-11v75H552a10.63,10.63,0,0,0,7.48-2.64A9.38,9.38,0,0,0,562.38,447.6Z"/><path class="cls-2" d="M613.94,464.48H584.73V375.54H613.6v7h-21v33.19h19.09v7.1H592.63v34.67h21.31Z"/><path class="cls-2" d="M664.7,464.48h-8.3l-16.53-47.62,1.08-1.59H655V382.53H634.75v82h-7.9V375.54h29.78a6,6,0,0,1,6.31,6.31v33.76q0,6.42-8.64,6.42c-.57,0-1.4,0-2.5-.09s-1.89-.08-2.39-.08Q657.09,443.11,664.7,464.48Z"/><path class="cls-2" d="M694.55,357.41l-13.92,13.13h-5.29v-.34l8.53-13h10.68Zm-9.09,107.07h-7.9V375.54h7.9Z"/><path class="cls-2" d="M736.74,464.48h-7.85l-3.12-19.78H708.09L705,464.48h-7.62v-.23l15.86-88.94H721Zm-12-26.77L717,389.52l-7.84,48.19Z"/><path class="cls-1" d="M1139.86,273.45c-6.77-15-11.41-72.55,44.06-116s93.68-1.48,100.36,8.33c4.63,6.78,21,38.7.43,75,0,0,40.34,5.66,48.37,40,.75,3.2,17.81-30.06,26.17-68.19,11-50.16-11.77-149.36-104.9-167.06-127-24.14-175.84,116.37-179.15,142.53-3.84,30.4-2.25,68.46,24.28,105.49,24.8,34.61,96.1,47.41,132.23,27.51,16.17-8.91,25.57-17.2,30.72-24.57,0,0-25.81,18.12-56.22,16.89C1183.43,312.46,1155.22,307.54,1139.86,273.45Z"/><path class="cls-1" d="M1150.61,282c19.05,30.14,63.28,29.22,83.25,23.69,27.67-7.66,38.11-17.79,39.32-25.8,1.54-10.14-26.42,3.38-44.85,5.53-12.52,1.46-30.77,2-47.92-9.22-16.9-11.06-25.5-36.55-23-57.44.93-7.94,4-29.27,11.37-41.47,0,0-46,54.38-18.13,104.71"/></g></g></svg>